<?xml version="1.0" encoding="UTF-8"?><svg id="Layer_1" xmlns="http://www.w3.org/2000/svg" viewBox="0 0 297.21 297.21"><defs><style>.cls-1{fill:#eaeaea;}.cls-2{fill:#fff;}.cls-3{fill:none;stroke:#fff;stroke-linecap:round;stroke-linejoin:round;stroke-width:12.78px;}</style></defs><circle class="cls-1" cx="148.61" cy="148.61" r="148.61"/><path class="cls-2" d="M148.6,114.19c-18.98,0-34.41,15.44-34.41,34.41s15.44,34.41,34.41,34.41,34.42-15.44,34.42-34.41-15.44-34.41-34.42-34.41ZM148.6,174.09c-14.05,0-25.48-11.43-25.48-25.48s11.43-25.48,25.48-25.48,25.48,11.43,25.48,25.48-11.43,25.48-25.48,25.48ZM228.66,138.7c0-3.33-1.4-5.12-4.69-5.93-5.3-1.3-10.61-2.57-15.93-3.79-1.13-.26-1.66-.81-2.27-1.83-1.7-2.84-1.1-5.12.72-7.66,2.51-3.51,4.71-7.26,6.99-10.94,1.96-3.16,1.68-5.34-1-7.98-4.46-4.4-8.93-8.78-13.46-13.11-.97-.93-2.11-1.74-3.3-2.35-1.66-.85-3.34-.51-4.92.41-3.74,2.2-7.48,4.42-11.23,6.61-1.35.79-2.72,1.54-4.1,2.27-.28.15-.71.29-.97.19-1.51-.57-3.01-1.18-4.47-1.87-.32-.15-.52-.7-.63-1.1-.53-2-.98-4.02-1.52-6.02-.96-3.59-1.94-7.17-2.97-10.73-.73-2.52-2.63-3.94-5.28-3.95-7.19-.03-14.38-.03-21.57,0-3.19.01-4.99,1.46-5.76,4.53-1.32,5.29-2.64,10.58-3.9,15.89-.21.89-.62,1.4-1.48,1.69-1.24.41-2.44.97-3.69,1.34-.45.13-1.1.04-1.51-.19-4.8-2.79-9.58-5.62-14.36-8.46-3.2-1.9-5.52-1.59-8.19,1-5.14,5-10.31,9.96-15.45,14.95-1.44,1.39-1.46,4.44-.13,6.36,1.17,1.69,2.32,3.39,3.41,5.13,1.84,2.96,3.67,5.94,5.4,8.96.31.54.14,1.36.17,2.05,0,.14-.14.27-.16.42-.58,3.19-2.73,4.33-5.73,4.88-4.57.83-9.06,2.06-13.59,3.08-2.35.53-3.78,2-4.55,4.21v23.67c1.07,2.65,3.14,3.75,5.88,4.3,5.15,1.04,10.24,2.36,15.33,3.65.56.14.98.84,1.45,1.28.03.03.04.1.06.14,1.86,2.85,1.34,5.36-.64,8.05-2.09,2.84-3.71,6.02-5.57,9.03-.36.59-.82,1.12-1.27,1.64-1.95,2.26-1.66,5.51.62,7.52,1.28,1.14,2.44,2.43,3.67,3.63,3.79,3.7,7.59,7.4,11.4,11.09,2.15,2.08,4.73,2.37,7.36.83,4.79-2.81,9.59-5.61,14.33-8.5.91-.55,1.63-.61,2.51-.12.44.25.91.56,1.38.6,2.5.23,3.15,1.92,3.62,4.04.98,4.49,2.24,8.91,3.22,13.4.59,2.73,1.93,4.59,4.71,5.28h24.31c2.59-1.04,3.71-3.06,4.33-5.71,1.17-5.04,2.62-10.02,3.95-15.02.02-.1.05-.19.09-.29.44-1.16,5.27-2.83,6.35-2.2,5.02,2.92,10.03,5.84,15.06,8.73,2.4,1.38,4.63,1.16,6.69-.71,1.98-1.8,3.9-3.65,5.83-5.49,3.06-2.93,6.12-5.87,9.14-8.84,2.7-2.65,2.97-4.8,1.01-7.98-2.81-4.54-5.66-9.06-8.53-13.55-.52-.82-.44-1.46-.2-2.37.83-3.12,2.67-4.55,5.93-5.06,4.53-.72,8.96-2.05,13.43-3.14,3.22-.78,4.68-2.64,4.69-5.95,0-6.68,0-13.35,0-20.03ZM217.66,155.24c-5.19,1.24-10.33,2.51-15.5,3.69-2.93.67-4.93,2.09-5.82,5.18-.72,2.5-1.9,4.89-3.06,7.24-1.09,2.21-1.05,4.23.27,6.3,2.63,4.12,5.22,8.26,7.82,12.39.29.47.56.95.84,1.43-.18-.15-.36-.31-.54-.46-2.79,3.05-5.56,6.12-8.4,9.13-.22.23-1.03.18-1.39-.03-4.24-2.45-8.48-4.91-12.66-7.47-2.64-1.62-5.13-1.89-7.98-.36-2.38,1.27-5.01,2.13-7.59,2.99-2.34.77-3.78,2.18-4.31,4.6-.54,2.47-1.14,4.92-1.81,7.35-.78,2.8-1.66,5.57-2.52,8.41h-13.15c-.84-3.38-1.68-6.79-2.52-10.2-.46-1.86-1-3.71-1.36-5.59-.44-2.29-1.88-3.57-3.93-4.38-3.24-1.29-6.47-2.58-9.69-3.91-1.82-.75-3.53-.62-5.22.39-4.3,2.56-8.63,5.05-12.89,7.66-1.37.84-2.27.86-3.42-.43-2.13-2.37-4.44-4.58-6.76-6.77-.85-.8-.81-1.36-.23-2.29,2.57-4.12,5-8.32,7.59-12.42,1.44-2.29,1.47-4.43.27-6.85-1.26-2.52-2.26-5.18-3.22-7.83-.79-2.2-2.15-3.57-4.44-4.1-5.12-1.19-10.23-2.41-15.35-3.62-.39-.09-.76-.22-1.17-.34v-12.9c4.86-1.17,9.71-2.33,14.56-3.49.74-.18,1.47-.35,2.21-.52,2.11-.48,3.39-1.8,4.16-3.81,1.1-2.87,2.27-5.72,3.55-8.52.98-2.12.93-4.06-.29-6.04-2.83-4.61-5.61-9.24-8.48-13.96,2.92-2.91,5.78-5.82,8.73-8.65.28-.27,1.16-.21,1.59.01,1.47.78,2.87,1.71,4.3,2.56,3.18,1.87,6.36,3.72,9.54,5.59,1.69.99,3.39,1.1,5.22.33,3.17-1.32,6.36-2.59,9.56-3.81,2.14-.81,3.5-2.14,4.02-4.48,1.1-4.88,2.37-9.71,3.57-14.57.09-.34.2-.67.32-1.08h13.25c1.35,5.05,2.81,10.06,3.99,15.14.69,2.94,2.26,4.62,5.15,5.5,2.59.78,5.13,1.87,7.56,3.08,2.4,1.19,4.57.98,6.76-.31,4.35-2.56,8.7-5.13,13.05-7.7.35-.2.7-.38,1.05-.57,2.92,2.79,5.78,5.56,8.7,8.26.75.7.61,1.19.14,1.92-2.68,4.2-5.29,8.45-8,12.64-1.44,2.22-1.48,4.34-.3,6.71,1.23,2.48,2.33,5.05,3.18,7.69.79,2.47,2.46,3.73,4.78,4.31,4.95,1.24,9.92,2.4,14.88,3.6.44.11.87.24,1.36.37v12.99Z"/><path class="cls-3" d="M38.44,162.86c-.6-4.67-.91-9.42-.91-14.25,0-61.34,49.73-111.07,111.07-111.07s111.07,49.73,111.07,111.07-49.73,111.07-111.07,111.07c-28.64,0-54.75-10.84-74.45-28.65"/><circle class="cls-2" cx="50.02" cy="200.12" r="11.27"/></svg>