<?xml version="1.0" encoding="UTF-8"?><svg id="Layer_1" xmlns="http://www.w3.org/2000/svg" viewBox="0 0 297.21 297.21" opacity="0.5"><defs><style>.cls-1{fill:#eaeaea;}.cls-2{fill:#fff;}.cls-3{fill:none;stroke:#fff;stroke-linecap:round;stroke-linejoin:round;stroke-width:12.78px;}</style></defs><circle class="cls-1" cx="148.61" cy="148.61" r="148.61"/><path class="cls-3" d="M38.44,162.86c-.6-4.67-.91-9.42-.91-14.25,0-61.34,49.73-111.07,111.07-111.07s111.07,49.73,111.07,111.07-49.73,111.07-111.07,111.07c-28.64,0-54.75-10.84-74.45-28.65"/><circle class="cls-2" cx="50.02" cy="200.12" r="11.27"/><path class="cls-2" d="M85.48,112.18c0-10.25,8.34-18.58,18.58-18.58s18.59,8.33,18.59,18.58-8.34,18.58-18.59,18.58-18.58-8.34-18.58-18.58ZM148.52,139.34c11.27,0,20.44-9.17,20.44-20.43s-9.17-20.43-20.44-20.43-20.43,9.17-20.43,20.43,9.17,20.43,20.43,20.43ZM193.14,130.76c10.25,0,18.58-8.34,18.58-18.58s-8.34-18.58-18.58-18.58-18.59,8.33-18.59,18.58,8.34,18.58,18.59,18.58ZM200.92,134.93l-3.8,3.8c-2.19,2.19-5.78,2.19-7.97,0l-3.8-3.8c-5.08,1.32-9.69,3.92-13.59,7.44,13.58,7.47,23.33,21.12,26.59,37.25h19.45c4.95,0,8.98-4.02,8.98-8.97,0-17.33-11.05-31.86-25.85-35.72ZM125.39,142.31c-3.89-3.49-8.48-6.07-13.53-7.38l-3.8,3.8c-2.19,2.19-5.78,2.19-7.97,0l-3.8-3.8c-14.8,3.85-25.85,18.38-25.85,35.72,0,4.95,4.03,8.97,8.98,8.97h19.28c3.27-16.17,13.07-29.85,26.7-37.31ZM159.03,143.28l-5.13,5.13c-2.96,2.96-7.8,2.96-10.76,0l-5.13-5.13c-19.98,5.2-34.9,24.82-34.9,48.22,0,6.68,5.44,12.12,12.12,12.12h66.59c6.68,0,12.12-5.43,12.12-12.12,0-23.4-14.92-43.02-34.91-48.22Z"/></svg>