<?xml version="1.0" encoding="UTF-8" standalone="no"?>
<svg
   id="visual"
   viewBox="0 0 1024 1024"
   width="1024"
   height="1024"
   version="1.1"
   sodipodi:docname="wave-haikei.svg"
   inkscape:version="1.2.2 (b0a84865, 2022-12-01)"
   xmlns:inkscape="http://www.inkscape.org/namespaces/inkscape"
   xmlns:sodipodi="http://sodipodi.sourceforge.net/DTD/sodipodi-0.dtd"
   xmlns="http://www.w3.org/2000/svg"
   xmlns:svg="http://www.w3.org/2000/svg">
  <defs
     id="defs50">
    <rect
       x="275.27589"
       y="293.03563"
       width="998.09709"
       height="589.62321"
       id="rect264" />
  </defs>
  <sodipodi:namedview
     id="namedview48"
     pagecolor="#ffffff"
     bordercolor="#000000"
     borderopacity="0.25"
     inkscape:showpageshadow="2"
     inkscape:pageopacity="0.0"
     inkscape:pagecheckerboard="0"
     inkscape:deskcolor="#d1d1d1"
     showgrid="false"
     inkscape:zoom="0.56307147"
     inkscape:cx="495.4966"
     inkscape:cy="465.30505"
     inkscape:window-width="1723"
     inkscape:window-height="1040"
     inkscape:window-x="0"
     inkscape:window-y="38"
     inkscape:window-maximized="0"
     inkscape:current-layer="visual" />
  <rect
     x="0"
     y="0"
     width="1024"
     height="1024"
     fill="#002233"
     id="rect43" />
  <path
     d="m 0,743.92276 24.3,14.68485 c 24.4,14.79958 73,44.16928 121.9,38.66246 48.8,-5.50682 97.8,-46.11961 146.6,-87.19131 48.9,-41.07169 97.5,-82.83173 146.2,-70.21194 48.7,12.61979 97.3,79.61943 146,104.05594 48.7,24.43651 97.3,6.53935 146.2,-1.49143 48.8,-8.03078 97.8,-6.19518 146.6,-4.58902 48.9,1.49143 97.5,2.63869 121.9,3.21232 l 24.3,0.57362 V 1025 h -24.3 c -24.4,0 -73,0 -121.9,0 -48.8,0 -97.8,0 -146.6,0 -48.9,0 -97.5,0 -146.2,0 -48.7,0 -97.3,0 -146,0 -48.7,0 -97.3,0 -146.2,0 -48.8,0 -97.8,0 -146.6,0 -48.9,0 -97.5,0 -121.9,0 H 0 Z"
     fill="#0066ff"
     stroke-linecap="round"
     stroke-linejoin="miter"
     id="path45"
     style="stroke-width:1.0711" />
  <g
     aria-label="BW"
     transform="translate(-153.15197,-52.469234)"
     id="text262"
     style="white-space:pre;shape-inside:url(#rect264);fill:#0066ff">
    <path
       d="m 436.60363,538.60659 q 28.71096,0 44.66149,-7.97527 25.06512,-12.53256 25.06512,-45.11722 0,-32.81252 -26.66018,-44.20576 -15.03907,-6.38021 -44.66149,-6.38021 h -80.89198 v 103.67846 z m 15.26694,154.49229 q 41.69924,0 59.47269,-24.15366 11.16538,-15.26694 11.16538,-36.91409 0,-36.45836 -32.58466,-49.67451 -17.31772,-7.06381 -45.80082,-7.06381 h -90.00657 v 117.80607 z m -142.1876,-295.9963 h 143.78265 q 58.7891,0 83.62636,35.09117 14.58334,20.73569 14.58334,47.8516 0,31.6732 -18.00131,51.95316 -9.34246,10.70964 -26.88804,19.59637 25.74871,9.79818 38.50914,22.10288 22.55861,21.87501 22.55861,60.38415 0,32.3568 -20.27996,58.56124 -30.30601,39.19274 -96.38679,39.19274 h -141.504 z"
       style="font-size:466.667px;font-family:Helvetica;-inkscape-font-specification:'Helvetica, Normal'"
       id="path722" />
    <path
       d="m 644.18842,397.10258 63.11853,272.29837 75.65109,-272.29837 h 49.21879 l 75.65109,272.29837 63.11854,-272.29837 H 1020.621 L 932.66518,731.83589 H 885.04145 L 807.7953,454.29663 730.09342,731.83589 H 682.46969 L 594.96963,397.10258 Z"
       style="font-size:466.667px;font-family:Helvetica;-inkscape-font-specification:'Helvetica, Normal'"
       id="path724" />
  </g>
</svg>
